<?xml version="1.0" encoding="UTF-8"?>
<svg version="1.1" xmlns="http://www.w3.org/2000/svg" width="640" height="1136">
<path d="M0 0 C211.2 0 422.4 0 640 0 C640 374.88 640 749.76 640 1136 C428.8 1136 217.6 1136 0 1136 C0 761.12 0 386.24 0 0 Z " fill="#EE4677" transform="translate(0,0)"/>
<path d="M0 0 C0.75610565 -0.0049649 1.5122113 -0.00992981 2.29122925 -0.01504517 C4.8036997 -0.02970358 7.31610701 -0.03647499 9.82861328 -0.04199219 C11.56877648 -0.04774078 13.30893965 -0.05349855 15.04910278 -0.05926514 C18.70266008 -0.06978572 22.3561953 -0.0756214 26.00976562 -0.07910156 C30.69648171 -0.08458738 35.38290742 -0.1086127 40.06953239 -0.13707352 C43.665709 -0.1556775 47.26181537 -0.1609043 50.85803604 -0.16243744 C52.58604647 -0.16546977 54.31405549 -0.17351777 56.04201889 -0.18662262 C58.45792604 -0.20363613 60.87312012 -0.20181463 63.2890625 -0.1953125 C64.3645636 -0.20913467 64.3645636 -0.20913467 65.46179199 -0.22323608 C70.30685077 -0.18228984 70.30685077 -0.18228984 72.6502533 1.54072571 C74.14341168 3.69395495 75.48639091 5.88020315 76.78564453 8.15722656 C77.37104004 9.17768066 77.95643555 10.19813477 78.55957031 11.24951172 C79.18718262 12.35472168 79.81479492 13.45993164 80.46142578 14.59863281 C81.44151611 16.31058838 81.44151611 16.31058838 82.44140625 18.05712891 C84.19538029 21.12098904 85.94350096 24.18814506 87.6897583 27.25640869 C90.22371231 31.70819628 92.76179441 36.15763146 95.30053711 40.60668945 C96.67152224 43.00932262 98.03959407 45.41357793 99.40551758 47.8190918 C100.03498291 48.92454346 100.66444824 50.02999512 101.31298828 51.16894531 C101.90370117 52.20954102 102.49441406 53.25013672 103.10302734 54.32226562 C104.56151872 56.80025185 106.1135783 59.1561244 107.73486328 61.52832031 C110.04940103 65.26976767 110.5830264 67.71107941 109.77392578 72.16113281 C108.1774555 75.81207714 106.19351046 79.18274074 104.14892578 82.59863281 C103.56715576 83.59781738 102.98538574 84.59700195 102.38598633 85.62646484 C101.15348591 87.73965212 99.91430866 89.84895742 98.66894531 91.95458984 C96.81203323 95.0966516 94.97527545 98.24957592 93.14501953 101.40722656 C90.24520977 106.40644789 87.32820729 111.39529974 84.40332031 116.37988281 C82.84292225 119.0433612 81.28971215 121.71089017 79.73876953 124.37988281 C78.83390996 125.93201765 77.92896773 127.48410431 77.02392578 129.03613281 C76.61762939 129.73786621 76.21133301 130.43959961 75.79272461 131.16259766 C74.27542648 133.75589361 72.90825151 136.02680708 70.77392578 138.16113281 C68.33828801 138.39066524 66.01320835 138.49648556 63.57373047 138.51513672 C62.83205124 138.52827911 62.09037201 138.54142151 61.32621765 138.55496216 C58.86607474 138.59445575 56.40617628 138.61775994 53.94580078 138.63769531 C53.10561653 138.64584637 52.26543228 138.65399742 51.3997879 138.66239548 C46.95143107 138.7041319 42.50319784 138.73272654 38.0546875 138.75146484 C33.46283205 138.77358058 28.87291899 138.84235182 24.28174973 138.92180824 C20.7489059 138.97414861 17.21652416 138.99084873 13.68332672 138.9980278 C11.9911718 139.00776092 10.29903763 139.03099481 8.60726166 139.06810379 C-4.57766173 139.339298 -4.57766173 139.339298 -8.50735474 136.53063965 C-10.09463758 134.4730791 -11.16988188 132.52927356 -12.22607422 130.16113281 C-12.85175293 129.15985352 -13.47743164 128.15857422 -14.12207031 127.12695312 C-14.65912598 126.17401367 -15.19618164 125.22107422 -15.74951172 124.23925781 C-16.37067871 123.14411865 -16.9918457 122.04897949 -17.63183594 120.9206543 C-18.2882911 119.7508376 -18.94470284 118.58099652 -19.60107422 117.41113281 C-20.29205112 116.18952492 -20.98363165 114.96825829 -21.67578125 113.74731445 C-23.12070813 111.19730104 -24.56301007 108.64583029 -26.00341797 106.09326172 C-29.32963919 100.20317008 -32.68437792 94.32935545 -36.04034424 88.45617676 C-37.08589511 86.62521438 -38.1295347 84.79317358 -39.17285156 82.9609375 C-39.80658691 81.85008789 -40.44032227 80.73923828 -41.09326172 79.59472656 C-41.65126465 78.61560303 -42.20926758 77.63647949 -42.78417969 76.62768555 C-43.87088608 74.76872946 -45.03164503 72.95277659 -46.22607422 71.16113281 C-45.9271466 66.548879 -44.46412552 63.32014689 -42.15576172 59.36425781 C-41.51364746 58.2529248 -40.8715332 57.1415918 -40.20996094 55.99658203 C-39.50716679 54.80133344 -38.80420041 53.6061861 -38.10107422 52.41113281 C-37.38031069 51.1709178 -36.6604338 49.93018711 -35.94140625 48.68896484 C-34.45357035 46.12331683 -32.96086452 43.56059825 -31.46435547 41 C-29.30667659 37.30489316 -27.16941868 33.59832682 -25.03857422 29.88769531 C-7.87150715 0.01220338 -7.87150715 0.01220338 0 0 Z " fill="#FEFDFD" transform="translate(288.22607421875,498.8388671875)"/>
<path d="M0 0 C5.46043052 0.69399326 8.01957039 2.1100347 12 6 C13.99669263 9.17611261 14.28107263 11.74496402 14.37890625 15.46484375 C14.43014648 17.03588867 14.43014648 17.03588867 14.48242188 18.63867188 C14.50884766 19.72728516 14.53527344 20.81589844 14.5625 21.9375 C14.62268268 24.09255204 14.68636075 26.24750992 14.75390625 28.40234375 C14.77783447 29.35616943 14.8017627 30.30999512 14.82641602 31.29272461 C14.99637584 33.94347639 15.41662613 36.41170092 16 39 C17.41433206 39.2236337 18.83167618 39.42826476 20.25 39.625 C21.03890625 39.74101563 21.8278125 39.85703125 22.640625 39.9765625 C25.41909296 40.00416318 26.72562897 39.58428409 29 38 C31.33312666 34.48317757 31.25301429 31.33396261 31.2734375 27.1875 C31.29371983 25.85155402 31.31457048 24.51561657 31.3359375 23.1796875 C31.35855397 21.08618937 31.37501945 18.99302888 31.38085938 16.89941406 C31.3903924 14.86983206 31.4241626 12.84174585 31.4609375 10.8125 C31.47326416 8.99685547 31.47326416 8.99685547 31.48583984 7.14453125 C32 4 32 4 33.80712891 1.5703125 C36 0 36 0 39.625 0.0625 C43 1 43 1 45 4 C45.38958868 8.31698889 45.32906394 12.64411597 45.31567383 16.9765625 C45.31254153 19.09689076 45.33587641 21.21578456 45.36132812 23.3359375 C45.4026146 32.03315064 45.35022203 39.94446807 39.625 46.875 C32.23810646 52.8548662 26.30243899 53.4888873 17 53 C11.2796699 51.99052998 6.55501363 48.54041186 3 44 C-1.5233942 35.84952972 -0.33116071 25.93029903 -0.1875 16.9375 C-0.17242751 15.29232994 -0.15874364 13.64714655 -0.14648438 12.00195312 C-0.11367782 8.00096859 -0.06203766 4.00063369 0 0 Z " fill="#EE487A" transform="translate(286,540)"/>
<path d="M0 0 C2.88293375 2.17356835 3.89542321 3.32463636 4.45410156 6.93261719 C4.4331543 8.04282227 4.41220703 9.15302734 4.390625 10.296875 C4.37773437 11.50214844 4.36484375 12.70742188 4.3515625 13.94921875 C4.31804687 15.20347656 4.28453125 16.45773437 4.25 17.75 C4.23195313 19.01972656 4.21390625 20.28945313 4.1953125 21.59765625 C4.14817812 24.73209258 4.07643558 27.8661413 4 31 C-0.29 31 -4.58 31 -9 31 C-9.06891253 27.06688101 -9.12862907 23.13530185 -9.16479492 19.2019043 C-9.18728333 17.20672299 -9.22540198 15.21173787 -9.26367188 13.21679688 C-9.27333984 11.96318359 -9.28300781 10.70957031 -9.29296875 9.41796875 C-9.3086792 8.26063232 -9.32438965 7.1032959 -9.34057617 5.91088867 C-9 3 -9 3 -7.6652832 1.1262207 C-5.01945579 -0.66313597 -3.1035345 -0.44336207 0 0 Z " fill="#EE4879" transform="translate(352,560)"/>
<path d="M0 0 C7.26 0 14.52 0 22 0 C22 4.62 22 9.24 22 14 C14.64411787 15.17694114 7.44546411 15.071591 0 15 C0 10.05 0 5.1 0 0 Z " fill="#F17FAF" transform="translate(254,1086)"/>
<path d="M0 0 C0.66 0.33 1.32 0.66 2 1 C2.07466101 5.69560343 2.12884101 10.39085443 2.16479492 15.08691406 C2.17979745 16.68137641 2.20020621 18.27579808 2.22631836 19.87011719 C2.26308134 22.17393077 2.27981155 24.4771946 2.29296875 26.78125 C2.30845261 27.48366821 2.32393646 28.18608643 2.33988953 28.90979004 C2.34165035 34.19476225 1.06695859 38.13656803 -1 43 C-1.66 43 -2.32 43 -3 43 C-3.2784375 43.86625 -3.2784375 43.86625 -3.5625 44.75 C-6.16819082 48.82847259 -10.34299722 50.56773841 -14.875 51.75 C-15.90625 51.8325 -16.9375 51.915 -18 52 C-18.65613281 52.06316406 -19.31226563 52.12632812 -19.98828125 52.19140625 C-26.51062809 52.5505408 -32.18473762 50.93613738 -38 48 C-40.5625 45.5 -40.5625 45.5 -42 43 C-42.4125 42.34 -42.825 41.68 -43.25 41 C-44.16040138 38.57226299 -44.14287008 36.57166137 -44 34 C-43.34 34.99 -42.68 35.98 -42 37 C-41.03883915 38.20212039 -40.05850616 39.38908816 -39.0625 40.5625 C-38.55847656 41.16191406 -38.05445313 41.76132812 -37.53515625 42.37890625 C-33.92266188 46.19362677 -30.4150072 46.81228644 -25.38671875 47.203125 C-17.79643286 47.33493894 -12.30957075 46.50056457 -6.1875 41.875 C-0.05366381 33.81338672 -0.47202266 24.15001979 -0.3125 14.4375 C-0.27926052 13.0331726 -0.24476495 11.62887433 -0.20898438 10.22460938 C-0.12700205 6.81648692 -0.05768655 3.40860575 0 0 Z " fill="#D9CFD3" transform="translate(331,545)"/>
<path d="M0 0 C1.65 0 3.3 0 5 0 C5 0.66 5 1.32 5 2 C4.34 2 3.68 2 3 2 C3 2.66 3 3.32 3 4 C3.66 4 4.32 4 5 4 C5 4.66 5 5.32 5 6 C4.34 6 3.68 6 3 6 C3 8.64 3 11.28 3 14 C0.87561661 14.08078641 -1.2496323 14.13909141 -3.375 14.1875 C-5.15003906 14.23970703 -5.15003906 14.23970703 -6.9609375 14.29296875 C-8.46527344 14.14794922 -8.46527344 14.14794922 -10 14 C-12.14201526 10.78697711 -12.65325876 9.73290719 -12 6 C-8.44035648 2.96383346 -5.57588204 2.68075242 -1 3 C-0.67 2.01 -0.34 1.02 0 0 Z " fill="#EC5495" transform="translate(328,1086)"/>
<path d="M0 0 C2 1.6875 2 1.6875 3 4 C2.92974155 7.44266385 2.60090824 9.28353249 0.375 11.9375 C-3.07517724 13.48100034 -5.39999716 12.93333407 -9 12 C-11.46943529 8.29584707 -11.46913089 6.37855495 -11 2 C-7.89207752 -1.97814077 -4.55239669 -1.24156273 0 0 Z " fill="#FDDE6C" transform="translate(354,541)"/>
<path d="M0 0 C2.64 0 5.28 0 8 0 C8 4.62 8 9.24 8 14 C5.36 14 2.72 14 0 14 C0 12.02 0 10.04 0 8 C-1.98 8 -3.96 8 -6 8 C-6 7.67 -6 7.34 -6 7 C-4.02 7 -2.04 7 0 7 C0 4.69 0 2.38 0 0 Z " fill="#F181B0" transform="translate(268,1086)"/>
<path d="M0 0 C0.99773437 0.02320313 1.99546875 0.04640625 3.0234375 0.0703125 C4.52777344 0.09738281 4.52777344 0.09738281 6.0625 0.125 C6.83335937 0.14820313 7.60421875 0.17140625 8.3984375 0.1953125 C8.3984375 1.1853125 8.3984375 2.1753125 8.3984375 3.1953125 C5.0984375 3.1953125 1.7984375 3.1953125 -1.6015625 3.1953125 C-1.2715625 3.8553125 -0.9415625 4.5153125 -0.6015625 5.1953125 C1.42387306 5.45251067 3.45193974 5.70373372 5.48828125 5.8515625 C7.3984375 6.1953125 7.3984375 6.1953125 9.3984375 8.1953125 C8.84288194 12.75086806 8.84288194 12.75086806 7.3984375 14.1953125 C5.54556248 14.26757752 3.69009872 14.2791247 1.8359375 14.2578125 C0.82402344 14.24878906 -0.18789063 14.23976563 -1.23046875 14.23046875 C-2.01292969 14.21886719 -2.79539062 14.20726562 -3.6015625 14.1953125 C-3.6015625 13.5353125 -3.6015625 12.8753125 -3.6015625 12.1953125 C-0.6315625 12.1953125 2.3384375 12.1953125 5.3984375 12.1953125 C5.3984375 10.8753125 5.3984375 9.5553125 5.3984375 8.1953125 C4.76035156 8.20691406 4.12226563 8.21851563 3.46484375 8.23046875 C2.22541016 8.24400391 2.22541016 8.24400391 0.9609375 8.2578125 C-0.27462891 8.27521484 -0.27462891 8.27521484 -1.53515625 8.29296875 C-3.6015625 8.1953125 -3.6015625 8.1953125 -4.6015625 7.1953125 C-4.7890625 4.7578125 -4.7890625 4.7578125 -4.6015625 2.1953125 C-2.6015625 0.1953125 -2.6015625 0.1953125 0 0 Z " fill="#FCEAF2" transform="translate(282.6015625,1085.8046875)"/>
<path d="M0 0 C0.33 0 0.66 0 1 0 C1 8.91 1 17.82 1 27 C5.29 27 9.58 27 14 27 C14 19.74 14 12.48 14 5 C14.33 5 14.66 5 15 5 C15.02886751 9.14581887 15.04675327 13.29161216 15.0625 17.4375 C15.07087891 18.62150391 15.07925781 19.80550781 15.08789062 21.02539062 C15.09111328 22.15009766 15.09433594 23.27480469 15.09765625 24.43359375 C15.10289307 25.47572021 15.10812988 26.51784668 15.11352539 27.59155273 C15 30 15 30 14 31 C9.38 31 4.76 31 0 31 C0 20.77 0 10.54 0 0 Z " fill="#DEC6CD" transform="translate(342,564)"/>
<path d="M0 0 C3.0625 0.3125 3.0625 0.3125 5 1.5 C6.0625 3.3125 6.0625 3.3125 5.875 5.875 C5.0625 8.3125 5.0625 8.3125 3.0625 10.3125 C0.0625 10.5625 0.0625 10.5625 -2.9375 10.3125 C-4.9375 8.3125 -4.9375 8.3125 -5.1875 5.3125 C-4.84687504 1.2250005 -4.07761768 0.43378911 0 0 Z " fill="#FCECF3" transform="translate(366.9375,1089.6875)"/>
<path d="M0 0 C0.99 0 1.98 0 3 0 C3 2.64 3 5.28 3 8 C4.32 8 5.64 8 7 8 C7 5.36 7 2.72 7 0 C7.99 0 8.98 0 10 0 C10.05389087 1.95803507 10.09274217 3.91648909 10.125 5.875 C10.14820313 6.96554687 10.17140625 8.05609375 10.1953125 9.1796875 C10 12 10 12 8 14 C5.31160615 14.26991906 2.70858064 14.08737357 0 14 C0 13.34 0 12.68 0 12 C1.98 11.67 3.96 11.34 6 11 C5.195625 10.690625 4.39125 10.38125 3.5625 10.0625 C1 9 1 9 0 8 C-0.14115161 5.32941149 -0.04247107 2.67567762 0 0 Z " fill="#FDEEF4" transform="translate(293,1090)"/>
<path d="M0 0 C0.33 0 0.66 0 1 0 C1.66 2.31 2.32 4.62 3 7 C6.26276567 7.86013727 6.26276567 7.86013727 10 8 C12.92860404 6.20954506 12.92860404 6.20954506 15 4 C15.375 6.6875 15.375 6.6875 15 10 C12.25 12.875 12.25 12.875 9 15 C5 15 5 15 2.25 13.125 C-0.88572796 8.76982228 -0.45420399 5.19811238 0 0 Z " fill="#F0EBEC" transform="translate(342,545)"/>
<path d="M0 0 C0.99 0 1.98 0 3 0 C3 2.64 3 5.28 3 8 C4.32 8 5.64 8 7 8 C7 5.36 7 2.72 7 0 C7.99 0 8.98 0 10 0 C10 3.3 10 6.6 10 10 C7.03 10 4.06 10 1 10 C-0.60725635 6.78548731 -0.05748185 3.56387464 0 0 Z " fill="#FCEDF3" transform="translate(334,1090)"/>
<path d="M0 0 C6.0546875 -0.1953125 6.0546875 -0.1953125 8 0 C10 2 10 2 10.1953125 3.9453125 C10.13020833 5.96354167 10.06510417 7.98177083 10 10 C9.01 10 8.02 10 7 10 C6.67 7.69 6.34 5.38 6 3 C5.01 2.67 4.02 2.34 3 2 C3 4.64 3 7.28 3 10 C2.01 10 1.02 10 0 10 C0 6.7 0 3.4 0 0 Z " fill="#FCEAF2" transform="translate(305,1090)"/>
<path d="M0 0 C2.05078125 0.03255208 4.1015625 0.06510417 6.15234375 0.09765625 C6.15234375 0.75765625 6.15234375 1.41765625 6.15234375 2.09765625 C4.17234375 2.09765625 2.19234375 2.09765625 0.15234375 2.09765625 C0.15234375 2.75765625 0.15234375 3.41765625 0.15234375 4.09765625 C0.95671875 4.07703125 1.76109375 4.05640625 2.58984375 4.03515625 C5.15234375 4.09765625 5.15234375 4.09765625 6.15234375 5.09765625 C6.19298207 6.7638274 6.19506475 8.4315372 6.15234375 10.09765625 C3.18234375 10.09765625 0.21234375 10.09765625 -2.84765625 10.09765625 C-2.84765625 9.43765625 -2.84765625 8.77765625 -2.84765625 8.09765625 C-0.53765625 8.09765625 1.77234375 8.09765625 4.15234375 8.09765625 C4.15234375 7.43765625 4.15234375 6.77765625 4.15234375 6.09765625 C1.84234375 6.09765625 -0.46765625 6.09765625 -2.84765625 6.09765625 C-2.89037725 4.4315372 -2.88829457 2.7638274 -2.84765625 1.09765625 C-1.84765625 0.09765625 -1.84765625 0.09765625 0 0 Z " fill="#FEF7FA" transform="translate(348.84765625,1089.90234375)"/>
<path d="M0 0 C6.15234375 -0.09765625 6.15234375 -0.09765625 8 0 C9 1 9 1 9.09765625 3.06640625 C9.08605469 3.89011719 9.07445312 4.71382812 9.0625 5.5625 C9.05347656 6.38878906 9.04445313 7.21507812 9.03515625 8.06640625 C9.02355469 8.70449219 9.01195312 9.34257813 9 10 C8.34 10 7.68 10 7 10 C6.67 7.69 6.34 5.38 6 3 C5.01 2.67 4.02 2.34 3 2 C3 4.64 3 7.28 3 10 C2.01 10 1.02 10 0 10 C0 6.7 0 3.4 0 0 Z " fill="#FDF6F9" transform="translate(374,1090)"/>
<path d="M0 0 C1.65 0 3.3 0 5 0 C5 0.66 5 1.32 5 2 C4.34 2 3.68 2 3 2 C3 2.66 3 3.32 3 4 C3.66 4 4.32 4 5 4 C5 4.66 5 5.32 5 6 C4.34 6 3.68 6 3 6 C3 8.64 3 11.28 3 14 C2.01 14 1.02 14 0 14 C0 11.36 0 8.72 0 6 C-0.66 6 -1.32 6 -2 6 C-2 5.34 -2 4.68 -2 4 C-1.34 4 -0.68 4 0 4 C0 2.68 0 1.36 0 0 Z " fill="#FCEAF2" transform="translate(328,1086)"/>
<path d="M0 0 C1.670625 0.061875 1.670625 0.061875 3.375 0.125 C3.375 0.785 3.375 1.445 3.375 2.125 C1.725 2.455 0.075 2.785 -1.625 3.125 C-1.625 4.445 -1.625 5.765 -1.625 7.125 C0.025 7.455 1.675 7.785 3.375 8.125 C3.375 8.785 3.375 9.445 3.375 10.125 C0 10.3125 0 10.3125 -3.625 10.125 C-5.77415785 6.90126323 -6.00786803 5.85796326 -5.625 2.125 C-3.625 0.125 -3.625 0.125 0 0 Z " fill="#FDF2F7" transform="translate(321.625,1089.875)"/>
<path d="M0 0 C1.65 1.65 3.3 3.3 5 5 C4.01 6.32 3.02 7.64 2 9 C0 8 -2 7 -4 6 C-2.84826645 3.53199953 -1.95216435 1.95216435 0 0 Z " fill="#FDF3F7" transform="translate(275,1075)"/>
<path d="M0 0 C1.98 0 3.96 0 6 0 C6 1.98 6 3.96 6 6 C4.02 6 2.04 6 0 6 C0 4.02 0 2.04 0 0 Z " fill="#FEFEFE" transform="translate(270,1094)"/>
<path d="M0 0 C1.98 0 3.96 0 6 0 C6 1.98 6 3.96 6 6 C4.02 6 2.04 6 0 6 C0 4.02 0 2.04 0 0 Z " fill="#FFFFFF" transform="translate(262,1094)"/>
<path d="M0 0 C1.98 0 3.96 0 6 0 C6 1.98 6 3.96 6 6 C4.02 6 2.04 6 0 6 C0 4.02 0 2.04 0 0 Z " fill="#FEFEFE" transform="translate(254,1094)"/>
<path d="M0 0 C1.98 0 3.96 0 6 0 C6 1.98 6 3.96 6 6 C4.02 6 2.04 6 0 6 C0 4.02 0 2.04 0 0 Z " fill="#FEFCFD" transform="translate(270,1086)"/>
<path d="M0 0 C1.98 0 3.96 0 6 0 C6 1.98 6 3.96 6 6 C4.02 6 2.04 6 0 6 C0 4.02 0 2.04 0 0 Z " fill="#FEFDFD" transform="translate(262,1086)"/>
<path d="M0 0 C1.98 0 3.96 0 6 0 C6 1.98 6 3.96 6 6 C4.02 6 2.04 6 0 6 C0 4.02 0 2.04 0 0 Z " fill="#FEFDFD" transform="translate(254,1086)"/>
<path d="M0 0 C1.98 0 3.96 0 6 0 C6 1.98 6 3.96 6 6 C4.02 6 2.04 6 0 6 C0 4.02 0 2.04 0 0 Z " fill="#FEFAFC" transform="translate(262,1079)"/>
<path d="M0 0 C1.98 0 3.96 0 6 0 C6 1.98 6 3.96 6 6 C4.02 6 2.04 6 0 6 C0 4.02 0 2.04 0 0 Z " fill="#FEFAFC" transform="translate(254,1079)"/>
<path d="M0 0 C0.99 1.485 0.99 1.485 2 3 C2.7734375 3.9590625 2.7734375 3.9590625 3.5625 4.9375 C5 7 5 7 5.3125 9.0625 C5.89909271 11.38402905 5.89909271 11.38402905 9.0625 12.75 C10.031875 13.1625 11.00125 13.575 12 14 C10.3125 14.8125 10.3125 14.8125 8 15 C4.54339028 12.13354316 1.92873323 9.06049101 0 5 C-0.1875 2.1875 -0.1875 2.1875 0 0 Z " fill="#E0DADC" transform="translate(287,579)"/>
<path d="M0 0 C0.66 0 1.32 0 2 0 C2 1.65 2 3.3 2 5 C4.31 5 6.62 5 9 5 C9 5.66 9 6.32 9 7 C6.69 7 4.38 7 2 7 C2 7.66 2 8.32 2 9 C1.34 9 0.68 9 0 9 C0 6.03 0 3.06 0 0 Z " fill="#EB5193" transform="translate(344,1091)"/>
<path d="M0 0 C1 3 1 3 0 5.1875 C-2 7 -2 7 -5.4375 7.4375 C-9.04146306 6.99490804 -10.43015709 6.46704919 -13 4 C-12.67 3.34 -12.34 2.68 -12 2 C-10.515 2.99 -10.515 2.99 -9 4 C-5.42823885 3.91832511 -5.42823885 3.91832511 -2 3 C-1.34 2.01 -0.68 1.02 0 0 Z " fill="#CFCECB" transform="translate(356,549)"/>
<path d="M0 0 C0.99 0 1.98 0 3 0 C3 3.3 3 6.6 3 10 C2.01 10 1.02 10 0 10 C0 6.7 0 3.4 0 0 Z " fill="#FCEBF3" transform="translate(357,1090)"/>
<path d="M0 0 C0.66 0.33 1.32 0.66 2 1 C2 3.31 2 5.62 2 8 C1.01 8.495 1.01 8.495 0 9 C-0.33 7.68 -0.66 6.36 -1 5 C-2.65 4.67 -4.3 4.34 -6 4 C-6 3.34 -6 2.68 -6 2 C-4.02 2 -2.04 2 0 2 C0 1.34 0 0.68 0 0 Z " fill="#EC5395" transform="translate(355,1090)"/>
<path d="M0 0 C2.0625 0.4375 2.0625 0.4375 4 1 C3.67 2.65 3.34 4.3 3 6 C1.68 6 0.36 6 -1 6 C-1.042721 4.33388095 -1.04063832 2.66617115 -1 1 C-0.67 0.67 -0.34 0.34 0 0 Z " fill="#EC5395" transform="translate(366,1092)"/>
<path d="M0 0 C0.33 0 0.66 0 1 0 C1.16276042 2.01822917 1.32552083 4.03645833 1.48828125 6.0546875 C1.87393036 8.39519216 1.87393036 8.39519216 5 10 C6.65549531 10.38499891 8.3222433 10.72793135 10 11 C10 11.33 10 11.66 10 12 C3.9453125 12.1953125 3.9453125 12.1953125 2 12 C0 10 0 10 -0.1953125 7.6171875 C-0.17210937 6.71226562 -0.14890625 5.80734375 -0.125 4.875 C-0.10695313 3.96492187 -0.08890625 3.05484375 -0.0703125 2.1171875 C-0.04710937 1.41851563 -0.02390625 0.71984375 0 0 Z " fill="#E3E1D7" transform="translate(342,545)"/>
<path d="M0 0 C0.99 0.33 1.98 0.66 3 1 C3 1.99 3 2.98 3 4 C2.01 4 1.02 4 0 4 C0 6.97 0 9.94 0 13 C-0.33 13 -0.66 13 -1 13 C-1.22245393 11.39773045 -1.42746669 9.79303233 -1.625 8.1875 C-1.74101562 7.29417969 -1.85703125 6.40085937 -1.9765625 5.48046875 C-2 3 -2 3 0 0 Z " fill="#F28CB8" transform="translate(384,1087)"/>
<path d="M0 0 C2.475 0.495 2.475 0.495 5 1 C4.67 2.32 4.34 3.64 4 5 C2.68 4.67 1.36 4.34 0 4 C0 2.68 0 1.36 0 0 Z " fill="#E25165" transform="translate(134,227)"/>
<path d="M0 0 C1.98 0.495 1.98 0.495 4 1 C3.67 2.32 3.34 3.64 3 5 C1.68 4.67 0.36 4.34 -1 4 C-0.67 2.68 -0.34 1.36 0 0 Z " fill="#F25770" transform="translate(307,317)"/>
<path d="M0 0 C1.98 0.495 1.98 0.495 4 1 C3.67 2.32 3.34 3.64 3 5 C1.68 4.67 0.36 4.34 -1 4 C-0.67 2.68 -0.34 1.36 0 0 Z " fill="#F25770" transform="translate(278,317)"/>
<path d="M0 0 C1.98 0.495 1.98 0.495 4 1 C3.67 2.32 3.34 3.64 3 5 C1.68 4.67 0.36 4.34 -1 4 C-0.67 2.68 -0.34 1.36 0 0 Z " fill="#F2576F" transform="translate(250,317)"/>
<path d="M0 0 C1.98 0.495 1.98 0.495 4 1 C3.67 2.32 3.34 3.64 3 5 C1.68 4.67 0.36 4.34 -1 4 C-0.67 2.68 -0.34 1.36 0 0 Z " fill="#F2576F" transform="translate(221,317)"/>
<path d="M0 0 C1.98 0.495 1.98 0.495 4 1 C3.67 2.32 3.34 3.64 3 5 C1.68 4.67 0.36 4.34 -1 4 C-0.67 2.68 -0.34 1.36 0 0 Z " fill="#F2576F" transform="translate(192,317)"/>
<path d="M0 0 C1.98 0.495 1.98 0.495 4 1 C3.67 2.32 3.34 3.64 3 5 C1.68 4.67 0.36 4.34 -1 4 C-0.67 2.68 -0.34 1.36 0 0 Z " fill="#F3576F" transform="translate(164,317)"/>
<path d="M0 0 C1.98 0.495 1.98 0.495 4 1 C3.67 2.32 3.34 3.64 3 5 C1.68 4.67 0.36 4.34 -1 4 C-0.67 2.68 -0.34 1.36 0 0 Z " fill="#F3576E" transform="translate(135,317)"/>
<path d="M0 0 C1.98 0.495 1.98 0.495 4 1 C3.67 2.32 3.34 3.64 3 5 C1.68 4.67 0.36 4.34 -1 4 C-0.67 2.68 -0.34 1.36 0 0 Z " fill="#F3576E" transform="translate(107,317)"/>
<path d="M0 0 C1.98 0.495 1.98 0.495 4 1 C3.67 2.32 3.34 3.64 3 5 C1.68 4.67 0.36 4.34 -1 4 C-0.67 2.68 -0.34 1.36 0 0 Z " fill="#F3576E" transform="translate(78,317)"/>
<path d="M0 0 C1.98 0.495 1.98 0.495 4 1 C3.67 2.32 3.34 3.64 3 5 C1.68 4.67 0.36 4.34 -1 4 C-0.67 2.68 -0.34 1.36 0 0 Z " fill="#EC546B" transform="translate(49,317)"/>
<path d="M0 0 C1.98 0.495 1.98 0.495 4 1 C3.67 2.32 3.34 3.64 3 5 C1.68 4.67 0.36 4.34 -1 4 C-0.67 2.68 -0.34 1.36 0 0 Z " fill="#F2576F" transform="translate(307,294)"/>
<path d="M0 0 C1.98 0.495 1.98 0.495 4 1 C3.67 2.32 3.34 3.64 3 5 C1.68 4.67 0.36 4.34 -1 4 C-0.67 2.68 -0.34 1.36 0 0 Z " fill="#F3576F" transform="translate(278,294)"/>
<path d="M0 0 C1.98 0.495 1.98 0.495 4 1 C3.67 2.32 3.34 3.64 3 5 C1.68 4.67 0.36 4.34 -1 4 C-0.67 2.68 -0.34 1.36 0 0 Z " fill="#F3576F" transform="translate(250,294)"/>
<path d="M0 0 C1.98 0.495 1.98 0.495 4 1 C3.67 2.32 3.34 3.64 3 5 C1.68 4.67 0.36 4.34 -1 4 C-0.67 2.68 -0.34 1.36 0 0 Z " fill="#F2576F" transform="translate(221,294)"/>
<path d="M0 0 C1.98 0.495 1.98 0.495 4 1 C3.67 2.32 3.34 3.64 3 5 C1.68 4.67 0.36 4.34 -1 4 C-0.67 2.68 -0.34 1.36 0 0 Z " fill="#F3576E" transform="translate(192,294)"/>
<path d="M0 0 C1.98 0.495 1.98 0.495 4 1 C3.67 2.32 3.34 3.64 3 5 C1.68 4.67 0.36 4.34 -1 4 C-0.67 2.68 -0.34 1.36 0 0 Z " fill="#F3576E" transform="translate(164,294)"/>
<path d="M0 0 C1.98 0.495 1.98 0.495 4 1 C3.67 2.32 3.34 3.64 3 5 C1.68 4.67 0.36 4.34 -1 4 C-0.67 2.68 -0.34 1.36 0 0 Z " fill="#F3576E" transform="translate(135,294)"/>
<path d="M0 0 C1.98 0.495 1.98 0.495 4 1 C3.67 2.32 3.34 3.64 3 5 C1.68 4.67 0.36 4.34 -1 4 C-0.67 2.68 -0.34 1.36 0 0 Z " fill="#F3576E" transform="translate(107,294)"/>
<path d="M0 0 C1.98 0.495 1.98 0.495 4 1 C3.67 2.32 3.34 3.64 3 5 C1.68 4.67 0.36 4.34 -1 4 C-0.67 2.68 -0.34 1.36 0 0 Z " fill="#EE556B" transform="translate(78,294)"/>
<path d="M0 0 C1.98 0.495 1.98 0.495 4 1 C3.67 2.32 3.34 3.64 3 5 C1.68 4.67 0.36 4.34 -1 4 C-0.67 2.68 -0.34 1.36 0 0 Z " fill="#F2576F" transform="translate(307,272)"/>
<path d="M0 0 C1.98 0.495 1.98 0.495 4 1 C3.67 2.32 3.34 3.64 3 5 C1.68 4.67 0.36 4.34 -1 4 C-0.67 2.68 -0.34 1.36 0 0 Z " fill="#F2576F" transform="translate(278,272)"/>
<path d="M0 0 C1.98 0.495 1.98 0.495 4 1 C3.67 2.32 3.34 3.64 3 5 C1.68 4.67 0.36 4.34 -1 4 C-0.67 2.68 -0.34 1.36 0 0 Z " fill="#F3576F" transform="translate(250,272)"/>
<path d="M0 0 C1.98 0.495 1.98 0.495 4 1 C3.67 2.32 3.34 3.64 3 5 C1.68 4.67 0.36 4.34 -1 4 C-0.67 2.68 -0.34 1.36 0 0 Z " fill="#F3576E" transform="translate(221,272)"/>
<path d="M0 0 C1.98 0.495 1.98 0.495 4 1 C3.67 2.32 3.34 3.64 3 5 C1.68 4.67 0.36 4.34 -1 4 C-0.67 2.68 -0.34 1.36 0 0 Z " fill="#F3576E" transform="translate(192,272)"/>
<path d="M0 0 C1.98 0.495 1.98 0.495 4 1 C3.67 2.32 3.34 3.64 3 5 C1.68 4.67 0.36 4.34 -1 4 C-0.67 2.68 -0.34 1.36 0 0 Z " fill="#F3576E" transform="translate(164,272)"/>
<path d="M0 0 C1.98 0.495 1.98 0.495 4 1 C3.67 2.32 3.34 3.64 3 5 C1.68 4.67 0.36 4.34 -1 4 C-0.67 2.68 -0.34 1.36 0 0 Z " fill="#F3576E" transform="translate(135,272)"/>
<path d="M0 0 C1.98 0.495 1.98 0.495 4 1 C3.67 2.32 3.34 3.64 3 5 C1.68 4.67 0.36 4.34 -1 4 C-0.67 2.68 -0.34 1.36 0 0 Z " fill="#F0566C" transform="translate(107,272)"/>
<path d="M0 0 C1.98 0.495 1.98 0.495 4 1 C3.67 2.32 3.34 3.64 3 5 C1.68 4.67 0.36 4.34 -1 4 C-0.67 2.68 -0.34 1.36 0 0 Z " fill="#F2576F" transform="translate(307,250)"/>
<path d="M0 0 C1.98 0.495 1.98 0.495 4 1 C3.67 2.32 3.34 3.64 3 5 C1.68 4.67 0.36 4.34 -1 4 C-0.67 2.68 -0.34 1.36 0 0 Z " fill="#F3576E" transform="translate(278,250)"/>
<path d="M0 0 C1.98 0.495 1.98 0.495 4 1 C3.67 2.32 3.34 3.64 3 5 C1.68 4.67 0.36 4.34 -1 4 C-0.67 2.68 -0.34 1.36 0 0 Z " fill="#F3576E" transform="translate(250,250)"/>
<path d="M0 0 C1.98 0.495 1.98 0.495 4 1 C3.67 2.32 3.34 3.64 3 5 C1.68 4.67 0.36 4.34 -1 4 C-0.67 2.68 -0.34 1.36 0 0 Z " fill="#F3576E" transform="translate(221,250)"/>
<path d="M0 0 C1.98 0.495 1.98 0.495 4 1 C3.67 2.32 3.34 3.64 3 5 C1.68 4.67 0.36 4.34 -1 4 C-0.67 2.68 -0.34 1.36 0 0 Z " fill="#F3576E" transform="translate(192,250)"/>
<path d="M0 0 C1.98 0.495 1.98 0.495 4 1 C3.67 2.32 3.34 3.64 3 5 C1.68 4.67 0.36 4.34 -1 4 C-0.67 2.68 -0.34 1.36 0 0 Z " fill="#F3576E" transform="translate(164,250)"/>
<path d="M0 0 C1.98 0.495 1.98 0.495 4 1 C3.67 2.32 3.34 3.64 3 5 C1.68 4.67 0.36 4.34 -1 4 C-0.67 2.68 -0.34 1.36 0 0 Z " fill="#F2566C" transform="translate(135,250)"/>
<path d="M0 0 C1.98 0.495 1.98 0.495 4 1 C3.67 2.32 3.34 3.64 3 5 C1.68 4.67 0.36 4.34 -1 4 C-0.67 2.68 -0.34 1.36 0 0 Z " fill="#F3576E" transform="translate(307,227)"/>
<path d="M0 0 C1.98 0.495 1.98 0.495 4 1 C3.67 2.32 3.34 3.64 3 5 C1.68 4.67 0.36 4.34 -1 4 C-0.67 2.68 -0.34 1.36 0 0 Z " fill="#F3576E" transform="translate(278,227)"/>
<path d="M0 0 C1.98 0.495 1.98 0.495 4 1 C3.67 2.32 3.34 3.64 3 5 C1.68 4.67 0.36 4.34 -1 4 C-0.67 2.68 -0.34 1.36 0 0 Z " fill="#F3576E" transform="translate(250,227)"/>
<path d="M0 0 C1.98 0.495 1.98 0.495 4 1 C3.67 2.32 3.34 3.64 3 5 C1.68 4.67 0.36 4.34 -1 4 C-0.67 2.68 -0.34 1.36 0 0 Z " fill="#F3576E" transform="translate(221,227)"/>
<path d="M0 0 C1.98 0.495 1.98 0.495 4 1 C3.67 2.32 3.34 3.64 3 5 C1.68 4.67 0.36 4.34 -1 4 C-0.67 2.68 -0.34 1.36 0 0 Z " fill="#F3576D" transform="translate(192,227)"/>
<path d="M0 0 C1.98 0.495 1.98 0.495 4 1 C3.67 2.32 3.34 3.64 3 5 C1.68 4.67 0.36 4.34 -1 4 C-0.67 2.68 -0.34 1.36 0 0 Z " fill="#F2576D" transform="translate(164,227)"/>
<path d="M0 0 C1.98 0.495 1.98 0.495 4 1 C3.67 2.32 3.34 3.64 3 5 C1.68 4.67 0.36 4.34 -1 4 C-0.67 2.68 -0.34 1.36 0 0 Z " fill="#F3576E" transform="translate(307,205)"/>
<path d="M0 0 C1.98 0.495 1.98 0.495 4 1 C3.67 2.32 3.34 3.64 3 5 C1.68 4.67 0.36 4.34 -1 4 C-0.67 2.68 -0.34 1.36 0 0 Z " fill="#F3576E" transform="translate(278,205)"/>
<path d="M0 0 C1.98 0.495 1.98 0.495 4 1 C3.67 2.32 3.34 3.64 3 5 C1.68 4.67 0.36 4.34 -1 4 C-0.67 2.68 -0.34 1.36 0 0 Z " fill="#F3576E" transform="translate(250,205)"/>
<path d="M0 0 C1.98 0.495 1.98 0.495 4 1 C3.67 2.32 3.34 3.64 3 5 C1.68 4.67 0.36 4.34 -1 4 C-0.67 2.68 -0.34 1.36 0 0 Z " fill="#F3576D" transform="translate(221,205)"/>
<path d="M0 0 C1.98 0.495 1.98 0.495 4 1 C3.67 2.32 3.34 3.64 3 5 C1.68 4.67 0.36 4.34 -1 4 C-0.67 2.68 -0.34 1.36 0 0 Z " fill="#F3576D" transform="translate(192,205)"/>
<path d="M0 0 C1.98 0.495 1.98 0.495 4 1 C3.67 2.32 3.34 3.64 3 5 C1.68 4.67 0.36 4.34 -1 4 C-0.67 2.68 -0.34 1.36 0 0 Z " fill="#E95369" transform="translate(164,205)"/>
<path d="M0 0 C1.98 0.495 1.98 0.495 4 1 C3.67 2.32 3.34 3.64 3 5 C1.68 4.67 0.36 4.34 -1 4 C-0.67 2.68 -0.34 1.36 0 0 Z " fill="#F3576E" transform="translate(307,183)"/>
<path d="M0 0 C1.98 0.495 1.98 0.495 4 1 C3.67 2.32 3.34 3.64 3 5 C1.68 4.67 0.36 4.34 -1 4 C-0.67 2.68 -0.34 1.36 0 0 Z " fill="#F3576E" transform="translate(278,183)"/>
<path d="M0 0 C1.98 0.495 1.98 0.495 4 1 C3.67 2.32 3.34 3.64 3 5 C1.68 4.67 0.36 4.34 -1 4 C-0.67 2.68 -0.34 1.36 0 0 Z " fill="#F3576D" transform="translate(250,183)"/>
<path d="M0 0 C1.98 0.495 1.98 0.495 4 1 C3.67 2.32 3.34 3.64 3 5 C1.68 4.67 0.36 4.34 -1 4 C-0.67 2.68 -0.34 1.36 0 0 Z " fill="#F3576D" transform="translate(221,183)"/>
<path d="M0 0 C1.98 0.495 1.98 0.495 4 1 C3.67 2.32 3.34 3.64 3 5 C1.68 4.67 0.36 4.34 -1 4 C-0.67 2.68 -0.34 1.36 0 0 Z " fill="#EF556B" transform="translate(192,183)"/>
<path d="M0 0 C1.98 0.495 1.98 0.495 4 1 C3.67 2.32 3.34 3.64 3 5 C1.68 4.67 0.36 4.34 -1 4 C-0.67 2.68 -0.34 1.36 0 0 Z " fill="#F3576D" transform="translate(307,160)"/>
<path d="M0 0 C1.98 0.495 1.98 0.495 4 1 C3.67 2.32 3.34 3.64 3 5 C1.68 4.67 0.36 4.34 -1 4 C-0.67 2.68 -0.34 1.36 0 0 Z " fill="#F3576D" transform="translate(278,160)"/>
<path d="M0 0 C1.98 0.495 1.98 0.495 4 1 C3.67 2.32 3.34 3.64 3 5 C1.68 4.67 0.36 4.34 -1 4 C-0.67 2.68 -0.34 1.36 0 0 Z " fill="#F3576D" transform="translate(250,160)"/>
<path d="M0 0 C1.98 0.495 1.98 0.495 4 1 C3.67 2.32 3.34 3.64 3 5 C1.68 4.67 0.36 4.34 -1 4 C-0.67 2.68 -0.34 1.36 0 0 Z " fill="#F2566C" transform="translate(221,160)"/>
<path d="M0 0 C1.98 0.495 1.98 0.495 4 1 C3.67 2.32 3.34 3.64 3 5 C1.68 4.67 0.36 4.34 -1 4 C-0.67 2.68 -0.34 1.36 0 0 Z " fill="#F3576D" transform="translate(307,138)"/>
<path d="M0 0 C1.98 0.495 1.98 0.495 4 1 C3.67 2.32 3.34 3.64 3 5 C1.68 4.67 0.36 4.34 -1 4 C-0.67 2.68 -0.34 1.36 0 0 Z " fill="#F3576D" transform="translate(278,138)"/>
<path d="M0 0 C1.98 0.495 1.98 0.495 4 1 C3.67 2.32 3.34 3.64 3 5 C1.68 4.67 0.36 4.34 -1 4 C-0.67 2.68 -0.34 1.36 0 0 Z " fill="#F2576D" transform="translate(250,138)"/>
<path d="M0 0 C0.66 0.66 1.32 1.32 2 2 C1.01 2 0.02 2 -1 2 C-0.67 1.34 -0.34 0.68 0 0 Z " fill="#E14661" transform="translate(220,137)"/>
<path d="M0 0 C1.98 0.495 1.98 0.495 4 1 C3.67 2.32 3.34 3.64 3 5 C1.68 4.67 0.36 4.34 -1 4 C-0.67 2.68 -0.34 1.36 0 0 Z " fill="#F3576D" transform="translate(307,116)"/>
<path d="M0 0 C1.98 0.495 1.98 0.495 4 1 C3.67 2.32 3.34 3.64 3 5 C1.68 4.67 0.36 4.34 -1 4 C-0.67 2.68 -0.34 1.36 0 0 Z " fill="#F3576D" transform="translate(278,116)"/>
<path d="M0 0 C1.98 0.495 1.98 0.495 4 1 C3.67 2.32 3.34 3.64 3 5 C1.68 4.67 0.36 4.34 -1 4 C-0.67 2.68 -0.34 1.36 0 0 Z " fill="#E75367" transform="translate(250,116)"/>
<path d="M0 0 C1.98 0.495 1.98 0.495 4 1 C3.67 2.32 3.34 3.64 3 5 C1.68 4.67 0.36 4.34 -1 4 C-0.67 2.68 -0.34 1.36 0 0 Z " fill="#F3576D" transform="translate(307,93)"/>
<path d="M0 0 C1.98 0.495 1.98 0.495 4 1 C3.67 2.32 3.34 3.64 3 5 C1.68 4.67 0.36 4.34 -1 4 C-0.67 2.68 -0.34 1.36 0 0 Z " fill="#E75367" transform="translate(278,93)"/>
<path d="M0 0 C0.268125 0.61875 0.53625 1.2375 0.8125 1.875 C1.95556848 4.2995233 1.95556848 4.2995233 5 6 C3.125 6.625 3.125 6.625 1 7 C0.34 6.34 -0.32 5.68 -1 5 C-0.625 2.375 -0.625 2.375 0 0 Z " fill="#FEF8FB" transform="translate(363,1093)"/>
</svg>
