<svg width="360" height="640" viewBox="0 0 360 640" fill="none" xmlns="http://www.w3.org/2000/svg">
<g clip-path="url(#clip0_6770_326)">
<rect width="360" height="640" fill="url(#paint0_linear_6770_326)"/>
<g filter="url(#filter0_df_6770_326)">
<circle cx="-479" cy="586" r="788" fill="url(#paint1_linear_6770_326)"/>
</g>
<path d="M131.392 309.162C130.926 309.162 130.526 308.997 130.19 308.668C129.855 308.332 129.688 307.929 129.688 307.457C129.688 306.991 129.855 306.594 130.19 306.264C130.526 305.929 130.926 305.761 131.392 305.761C131.858 305.761 132.259 305.929 132.594 306.264C132.929 306.594 133.097 306.991 133.097 307.457C133.097 307.77 133.017 308.057 132.858 308.318C132.705 308.574 132.5 308.778 132.244 308.932C131.989 309.085 131.705 309.162 131.392 309.162ZM150.803 291.545V309H148.382L139.51 296.199H139.348V309H136.714V291.545H139.152L148.033 304.364H148.195V291.545H150.803ZM154.644 309V291.545H165.587V293.812H157.278V299.131H165.016V301.389H157.278V306.733H165.69V309H154.644ZM168.244 293.812V291.545H181.753V293.812H176.307V309H173.682V293.812H168.244ZM191.089 291.545H194.286L199.842 305.114H200.047L205.604 291.545H208.8V309H206.294V296.369H206.132L200.984 308.974H198.905L193.757 296.361H193.595V309H191.089V291.545ZM214.103 309H211.308L217.589 291.545H220.631L226.913 309H224.117L219.183 294.716H219.046L214.103 309ZM214.572 302.165H223.64V304.381H214.572V302.165ZM240.658 291.545H243.3V303.026C243.3 304.247 243.013 305.33 242.439 306.273C241.865 307.21 241.058 307.949 240.018 308.489C238.979 309.023 237.76 309.29 236.362 309.29C234.97 309.29 233.754 309.023 232.714 308.489C231.675 307.949 230.868 307.21 230.294 306.273C229.72 305.33 229.433 304.247 229.433 303.026V291.545H232.067V302.812C232.067 303.602 232.24 304.304 232.587 304.918C232.939 305.531 233.436 306.014 234.078 306.366C234.72 306.713 235.482 306.886 236.362 306.886C237.249 306.886 238.013 306.713 238.655 306.366C239.303 306.014 239.797 305.531 240.138 304.918C240.484 304.304 240.658 303.602 240.658 302.812V291.545ZM249.762 291.545V309H247.129V291.545H249.762ZM130.318 347V329.545H140.443V330.977H131.912V337.548H139.906V338.98H131.912V345.568H140.614V347H130.318ZM153.528 336.781L152.139 337.173C152.003 336.781 151.81 336.426 151.56 336.108C151.31 335.79 150.983 335.537 150.579 335.349C150.182 335.162 149.687 335.068 149.096 335.068C148.21 335.068 147.483 335.278 146.915 335.699C146.346 336.119 146.062 336.662 146.062 337.327C146.062 337.889 146.256 338.347 146.642 338.699C147.034 339.045 147.636 339.321 148.449 339.526L150.426 340.011C151.523 340.278 152.344 340.702 152.889 341.281C153.44 341.861 153.716 342.588 153.716 343.463C153.716 344.202 153.511 344.858 153.102 345.432C152.693 346.006 152.122 346.457 151.389 346.787C150.662 347.111 149.818 347.273 148.858 347.273C147.579 347.273 146.525 346.986 145.696 346.412C144.866 345.832 144.335 344.997 144.102 343.906L145.56 343.548C145.747 344.327 146.114 344.915 146.659 345.312C147.21 345.71 147.935 345.909 148.832 345.909C149.838 345.909 150.642 345.685 151.244 345.236C151.846 344.781 152.148 344.213 152.148 343.531C152.148 343.003 151.971 342.56 151.619 342.202C151.267 341.838 150.733 341.571 150.017 341.401L147.878 340.889C146.741 340.616 145.9 340.185 145.355 339.594C144.81 339.003 144.537 338.27 144.537 337.395C144.537 336.673 144.733 336.04 145.125 335.494C145.517 334.943 146.057 334.511 146.744 334.199C147.432 333.886 148.216 333.73 149.096 333.73C150.295 333.73 151.253 334.003 151.969 334.548C152.69 335.088 153.21 335.832 153.528 336.781ZM166.313 336.781L164.924 337.173C164.787 336.781 164.594 336.426 164.344 336.108C164.094 335.79 163.768 335.537 163.364 335.349C162.966 335.162 162.472 335.068 161.881 335.068C160.995 335.068 160.268 335.278 159.699 335.699C159.131 336.119 158.847 336.662 158.847 337.327C158.847 337.889 159.04 338.347 159.427 338.699C159.819 339.045 160.421 339.321 161.233 339.526L163.211 340.011C164.307 340.278 165.128 340.702 165.674 341.281C166.225 341.861 166.5 342.588 166.5 343.463C166.5 344.202 166.296 344.858 165.887 345.432C165.478 346.006 164.907 346.457 164.174 346.787C163.447 347.111 162.603 347.273 161.643 347.273C160.364 347.273 159.31 346.986 158.481 346.412C157.651 345.832 157.12 344.997 156.887 343.906L158.344 343.548C158.532 344.327 158.898 344.915 159.444 345.312C159.995 345.71 160.719 345.909 161.617 345.909C162.623 345.909 163.427 345.685 164.029 345.236C164.631 344.781 164.932 344.213 164.932 343.531C164.932 343.003 164.756 342.56 164.404 342.202C164.052 341.838 163.518 341.571 162.802 341.401L160.662 340.889C159.526 340.616 158.685 340.185 158.14 339.594C157.594 339.003 157.322 338.27 157.322 337.395C157.322 336.673 157.518 336.04 157.91 335.494C158.302 334.943 158.841 334.511 159.529 334.199C160.216 333.886 161 333.73 161.881 333.73C163.08 333.73 164.037 334.003 164.753 334.548C165.475 335.088 165.995 335.832 166.313 336.781ZM175.595 347.273C174.373 347.273 173.316 346.989 172.424 346.42C171.532 345.847 170.842 345.054 170.353 344.043C169.87 343.026 169.629 341.855 169.629 340.531C169.629 339.213 169.87 338.043 170.353 337.02C170.842 335.991 171.515 335.187 172.373 334.608C173.237 334.023 174.234 333.73 175.365 333.73C176.075 333.73 176.76 333.861 177.419 334.122C178.078 334.378 178.669 334.773 179.191 335.307C179.72 335.835 180.137 336.503 180.444 337.31C180.751 338.111 180.904 339.06 180.904 340.156V340.906H170.677V339.568H179.353C179.353 338.727 179.183 337.972 178.842 337.301C178.507 336.625 178.038 336.091 177.436 335.699C176.839 335.307 176.149 335.111 175.365 335.111C174.535 335.111 173.805 335.332 173.174 335.776C172.544 336.219 172.049 336.804 171.691 337.531C171.339 338.259 171.16 339.054 171.154 339.918V340.719C171.154 341.759 171.333 342.668 171.691 343.446C172.055 344.219 172.569 344.818 173.234 345.244C173.899 345.67 174.686 345.884 175.595 345.884C176.214 345.884 176.757 345.787 177.223 345.594C177.694 345.401 178.089 345.142 178.407 344.818C178.731 344.489 178.976 344.128 179.14 343.736L180.581 344.205C180.382 344.756 180.055 345.264 179.601 345.73C179.152 346.196 178.589 346.571 177.913 346.855C177.243 347.134 176.47 347.273 175.595 347.273ZM186.245 338.818V347H184.728V333.909H186.202V335.963H186.338C186.645 335.293 187.122 334.756 187.77 334.352C188.424 333.943 189.23 333.739 190.191 333.739C191.071 333.739 191.844 333.923 192.509 334.293C193.179 334.656 193.699 335.193 194.068 335.903C194.443 336.614 194.631 337.486 194.631 338.52V347H193.114V338.614C193.114 337.54 192.813 336.69 192.21 336.065C191.614 335.44 190.813 335.128 189.807 335.128C189.12 335.128 188.509 335.276 187.975 335.571C187.441 335.866 187.017 336.293 186.705 336.849C186.398 337.401 186.245 338.057 186.245 338.818ZM204.262 333.909V335.23H198.015V333.909H204.262ZM199.967 330.773H201.492V343.582C201.492 344.128 201.586 344.557 201.774 344.869C201.961 345.176 202.205 345.395 202.507 345.526C202.808 345.651 203.129 345.713 203.47 345.713C203.668 345.713 203.839 345.702 203.981 345.679C204.123 345.651 204.248 345.622 204.356 345.594L204.68 346.966C204.532 347.023 204.35 347.074 204.134 347.119C203.918 347.17 203.651 347.196 203.333 347.196C202.776 347.196 202.239 347.074 201.722 346.83C201.211 346.585 200.791 346.222 200.461 345.739C200.132 345.256 199.967 344.656 199.967 343.94V330.773ZM208.205 347V333.909H209.73V347H208.205ZM208.98 331.659C208.668 331.659 208.401 331.554 208.179 331.344C207.957 331.128 207.847 330.869 207.847 330.568C207.847 330.267 207.957 330.011 208.179 329.801C208.401 329.585 208.668 329.477 208.98 329.477C209.293 329.477 209.56 329.585 209.781 329.801C210.003 330.011 210.114 330.267 210.114 330.568C210.114 330.869 210.003 331.128 209.781 331.344C209.56 331.554 209.293 331.659 208.98 331.659ZM217.878 347.298C217.089 347.298 216.367 347.145 215.714 346.838C215.06 346.526 214.54 346.077 214.154 345.491C213.768 344.901 213.574 344.185 213.574 343.344C213.574 342.696 213.697 342.151 213.941 341.707C214.185 341.264 214.532 340.901 214.981 340.616C215.43 340.332 215.961 340.108 216.574 339.943C217.188 339.778 217.864 339.651 218.603 339.56C219.336 339.469 219.955 339.389 220.461 339.321C220.972 339.253 221.361 339.145 221.628 338.997C221.896 338.849 222.029 338.611 222.029 338.281V337.974C222.029 337.082 221.762 336.381 221.228 335.869C220.699 335.352 219.938 335.094 218.944 335.094C218.001 335.094 217.231 335.301 216.634 335.716C216.043 336.131 215.628 336.619 215.39 337.182L213.949 336.662C214.245 335.946 214.654 335.375 215.177 334.949C215.699 334.517 216.285 334.207 216.932 334.02C217.58 333.827 218.236 333.73 218.901 333.73C219.401 333.73 219.921 333.795 220.461 333.926C221.006 334.057 221.512 334.284 221.978 334.608C222.444 334.926 222.822 335.372 223.111 335.946C223.401 336.514 223.546 337.236 223.546 338.111V347H222.029V344.929H221.935C221.753 345.315 221.484 345.69 221.126 346.054C220.768 346.418 220.319 346.716 219.779 346.949C219.239 347.182 218.606 347.298 217.878 347.298ZM218.083 345.909C218.89 345.909 219.589 345.73 220.18 345.372C220.771 345.014 221.225 344.54 221.543 343.949C221.867 343.352 222.029 342.696 222.029 341.98V340.088C221.915 340.196 221.725 340.293 221.458 340.378C221.197 340.463 220.893 340.54 220.546 340.608C220.205 340.67 219.864 340.724 219.523 340.77C219.182 340.815 218.876 340.855 218.603 340.889C217.864 340.98 217.234 341.122 216.711 341.315C216.188 341.509 215.788 341.776 215.509 342.116C215.231 342.452 215.092 342.884 215.092 343.412C215.092 344.207 215.376 344.824 215.944 345.261C216.512 345.693 217.225 345.909 218.083 345.909ZM229.579 329.545V347H228.062V329.545H229.579ZM274.942 329.545H276.535V341.102C276.535 342.29 276.257 343.352 275.7 344.29C275.143 345.222 274.368 345.957 273.374 346.497C272.385 347.031 271.234 347.298 269.922 347.298C268.615 347.298 267.464 347.028 266.47 346.489C265.476 345.949 264.7 345.213 264.143 344.281C263.587 343.349 263.308 342.29 263.308 341.102V329.545H264.902V340.991C264.902 341.918 265.109 342.744 265.524 343.472C265.939 344.193 266.521 344.761 267.271 345.176C268.027 345.591 268.91 345.798 269.922 345.798C270.933 345.798 271.817 345.591 272.572 345.176C273.328 344.761 273.91 344.193 274.32 343.472C274.734 342.744 274.942 341.918 274.942 340.991V329.545ZM283.241 329.545V347H281.648V329.545H283.241ZM295.592 347V329.545H297.186V338.946H297.339L305.862 329.545H307.958L300.501 337.616L307.924 347H305.981L299.512 338.724L297.186 341.332V347H295.592ZM311.969 347V333.909H313.495V347H311.969ZM312.745 331.659C312.432 331.659 312.165 331.554 311.943 331.344C311.722 331.128 311.611 330.869 311.611 330.568C311.611 330.267 311.722 330.011 311.943 329.801C312.165 329.585 312.432 329.477 312.745 329.477C313.057 329.477 313.324 329.585 313.546 329.801C313.767 330.011 313.878 330.267 313.878 330.568C313.878 330.869 313.767 331.128 313.546 331.344C313.324 331.554 313.057 331.659 312.745 331.659ZM323.143 333.909V335.23H316.896V333.909H323.143ZM318.847 330.773H320.373V343.582C320.373 344.128 320.467 344.557 320.654 344.869C320.842 345.176 321.086 345.395 321.387 345.526C321.688 345.651 322.009 345.713 322.35 345.713C322.549 345.713 322.72 345.702 322.862 345.679C323.004 345.651 323.129 345.622 323.237 345.594L323.56 346.966C323.413 347.023 323.231 347.074 323.015 347.119C322.799 347.17 322.532 347.196 322.214 347.196C321.657 347.196 321.12 347.074 320.603 346.83C320.092 346.585 319.671 346.222 319.342 345.739C319.012 345.256 318.847 344.656 318.847 343.94V330.773Z" fill="white"/>
<path d="M237.125 330.466V325.375H238.94C239.334 325.375 239.661 325.443 239.922 325.579C240.183 325.715 240.379 325.903 240.508 326.143C240.637 326.382 240.702 326.658 240.702 326.971C240.702 327.282 240.637 327.557 240.506 327.794C240.376 328.029 240.181 328.212 239.919 328.343C239.659 328.474 239.332 328.539 238.937 328.539H237.563V327.878H238.868C239.116 327.878 239.318 327.843 239.474 327.771C239.632 327.7 239.747 327.596 239.82 327.461C239.893 327.325 239.929 327.161 239.929 326.971C239.929 326.779 239.892 326.612 239.817 326.471C239.744 326.33 239.629 326.223 239.472 326.148C239.316 326.072 239.111 326.034 238.858 326.034H237.893V330.466H237.125ZM239.638 328.169L240.896 330.466H240.021L238.788 328.169H239.638Z" fill="white"/>
<circle cx="239" cy="328" r="5.5" stroke="white"/>
<path d="M103.174 330.807V309.074C103.174 304.588 103.174 302.345 102.111 300.495C101.048 298.644 99.1108 297.514 95.236 295.254L77.149 284.703C73.2162 282.409 71.2498 281.262 69.087 281.262C66.9241 281.262 64.9577 282.409 61.0249 284.703L42.938 295.254C39.0631 297.514 37.1257 298.644 36.0628 300.495C35 302.345 35 304.588 35 309.074V330.807C35 335.277 35 337.511 36.0561 339.357C37.1123 341.203 39.0387 342.336 42.8915 344.601L60.9784 355.233C64.9326 357.558 66.9097 358.72 69.087 358.72C71.2642 358.72 73.2413 357.558 77.1955 355.233L95.2824 344.601C99.1352 342.336 101.062 341.203 102.118 339.357C103.174 337.511 103.174 335.277 103.174 330.807Z" fill="white"/>
<path d="M74.9999 306.822V302.549C74.9999 301.823 74.6062 301.154 73.9713 300.801L70.0582 298.627C69.4541 298.291 68.7196 298.291 68.1155 298.627L64.2025 300.801C63.5676 301.154 63.1738 301.823 63.1738 302.549V306.822C63.1738 307.546 63.5651 308.213 64.1968 308.567L68.1098 310.758C68.7168 311.098 69.4569 311.098 70.0639 310.758L73.977 308.567C74.6087 308.213 74.9999 307.546 74.9999 306.822Z" fill="#3754EB"/>
<path d="M84.7399 312.348V327.299C84.7399 329.095 83.7769 330.753 82.2171 331.642L71.565 337.718C70.0296 338.594 68.1459 338.594 66.6105 337.718L55.9583 331.642C54.3985 330.753 53.4355 329.095 53.4355 327.299V312.348" stroke="#3754EB" stroke-width="6" stroke-linecap="round"/>
</g>
<defs>
<filter id="filter0_df_6770_326" x="-1407" y="-362" width="1876" height="1876" filterUnits="userSpaceOnUse" color-interpolation-filters="sRGB">
<feFlood flood-opacity="0" result="BackgroundImageFix"/>
<feColorMatrix in="SourceAlpha" type="matrix" values="0 0 0 0 0 0 0 0 0 0 0 0 0 0 0 0 0 0 127 0" result="hardAlpha"/>
<feMorphology radius="50" operator="dilate" in="SourceAlpha" result="effect1_dropShadow_6770_326"/>
<feOffset dx="10" dy="-10"/>
<feGaussianBlur stdDeviation="50"/>
<feComposite in2="hardAlpha" operator="out"/>
<feColorMatrix type="matrix" values="0 0 0 0 0 0 0 0 0 0 0 0 0 0 0 0 0 0 0.25 0"/>
<feBlend mode="normal" in2="BackgroundImageFix" result="effect1_dropShadow_6770_326"/>
<feBlend mode="normal" in="SourceGraphic" in2="effect1_dropShadow_6770_326" result="shape"/>
<feGaussianBlur stdDeviation="5" result="effect2_foregroundBlur_6770_326"/>
</filter>
<linearGradient id="paint0_linear_6770_326" x1="180" y1="0" x2="180" y2="827.917" gradientUnits="userSpaceOnUse">
<stop stop-color="#3754EB"/>
<stop offset="1" stop-color="#041361"/>
</linearGradient>
<linearGradient id="paint1_linear_6770_326" x1="-479" y1="-202" x2="-479" y2="1374" gradientUnits="userSpaceOnUse">
<stop stop-color="#3754EB"/>
<stop offset="1" stop-color="#041361"/>
</linearGradient>
<clipPath id="clip0_6770_326">
<rect width="360" height="640" fill="white"/>
</clipPath>
</defs>
</svg>
